<svg width="1114" height="430" viewBox="0 0 1114 430" fill="none" xmlns="http://www.w3.org/2000/svg">
<path d="M527.643 429.231C818.974 429.231 1055.14 413.596 1055.14 394.309C1055.14 375.023 818.974 359.388 527.643 359.388C236.313 359.388 0.143433 375.023 0.143433 394.309C0.143433 413.596 236.313 429.231 527.643 429.231Z" fill="#F2F2F2"/>
<path d="M507.426 12.0098C421.482 12.0098 359.775 67.1492 359.775 195.808C359.775 341.621 421.482 380.218 507.426 380.218C593.37 380.218 658.753 337.945 658.753 195.808C658.753 43.8681 593.37 12.0098 507.426 12.0098ZM507.991 331.818C448.464 331.818 417.365 296.895 417.365 195.902C417.365 106.79 449.737 59.7972 509.264 59.7972C568.791 59.7972 601.163 90.665 601.163 195.902C601.163 294.349 567.517 331.818 507.991 331.818Z" fill="#2F2E41"/>
<path d="M308.311 278.517H272.777V173.877C272.777 168.319 270.569 162.989 266.639 159.059C262.709 155.129 257.379 152.921 251.821 152.921H243.495C240.743 152.921 238.018 153.463 235.475 154.517C232.933 155.57 230.623 157.113 228.677 159.059C226.731 161.005 225.187 163.315 224.134 165.858C223.081 168.4 222.539 171.125 222.539 173.877V278.517H122.309C120.247 278.517 118.22 277.984 116.425 276.97C114.629 275.955 113.127 274.494 112.062 272.728C110.998 270.962 110.408 268.951 110.35 266.89C110.292 264.829 110.768 262.788 111.731 260.965L217.814 60.1843C219.136 57.6811 219.938 54.9359 220.17 52.1143C220.402 49.2927 220.061 46.4533 219.165 43.7675C218.27 41.0816 216.84 38.6051 214.961 36.4873C213.082 34.3695 210.793 32.6544 208.233 31.4454L201.971 28.4883C197.108 26.192 191.549 25.853 186.444 27.5412C181.338 29.2295 177.077 32.8159 174.542 37.5583L45.1602 279.591C42.957 283.712 41.8043 288.314 41.8043 292.987V292.987C41.8043 296.719 42.5393 300.414 43.9673 303.861C45.3954 307.309 47.4885 310.441 50.1271 313.08C52.7658 315.719 55.8983 317.812 59.3459 319.24C62.7935 320.668 66.4885 321.403 70.2202 321.403H222.539V387.57C222.539 390.869 223.189 394.135 224.451 397.183C225.713 400.23 227.564 402.999 229.896 405.332C232.229 407.664 234.998 409.515 238.045 410.777C241.093 412.039 244.359 412.689 247.658 412.689H247.658C250.957 412.689 254.223 412.039 257.271 410.777C260.318 409.515 263.087 407.664 265.42 405.332C267.752 402.999 269.603 400.23 270.865 397.183C272.127 394.135 272.777 390.869 272.777 387.57V321.403H308.311C313.998 321.403 319.452 319.144 323.474 315.122C327.495 311.101 329.754 305.647 329.754 299.96V299.96C329.754 294.273 327.495 288.819 323.474 284.797C319.453 280.776 313.998 278.517 308.311 278.517V278.517Z" fill="#F9A826"/>
<path d="M966.308 278.517H930.773V173.877C930.773 168.319 928.566 162.989 924.636 159.059C920.706 155.129 915.375 152.921 909.818 152.921H901.491C898.739 152.921 896.014 153.463 893.472 154.517C890.929 155.57 888.619 157.113 886.673 159.059C884.727 161.005 883.184 163.315 882.131 165.858C881.077 168.4 880.535 171.125 880.535 173.877V278.517H780.305C778.243 278.517 776.216 277.984 774.421 276.97C772.626 275.955 771.123 274.494 770.059 272.728C768.995 270.962 768.405 268.951 768.347 266.89C768.289 264.829 768.764 262.788 769.728 260.965L875.81 60.1844C877.133 57.6811 877.934 54.9359 878.167 52.1143C878.399 49.2927 878.057 46.4533 877.162 43.7675C876.266 41.0816 874.836 38.6051 872.957 36.4873C871.078 34.3695 868.79 32.6544 866.23 31.4454L859.967 28.4883C855.105 26.192 849.546 25.853 844.44 27.5412C839.334 29.2295 835.073 32.8159 832.538 37.5583L703.157 279.591C700.953 283.712 699.801 288.314 699.801 292.987V292.987C699.801 300.523 702.795 307.751 708.124 313.08C713.453 318.409 720.68 321.403 728.217 321.403H880.535V387.57C880.535 394.232 883.182 400.621 887.893 405.332C892.603 410.043 898.992 412.689 905.654 412.689V412.689C912.316 412.689 918.705 410.043 923.416 405.332C928.127 400.621 930.773 394.232 930.773 387.57V321.403H966.308C971.995 321.403 977.449 319.144 981.47 315.122C985.492 311.101 987.751 305.647 987.751 299.96V299.96C987.751 294.273 985.492 288.819 981.47 284.797C977.449 280.776 971.995 278.517 966.308 278.517Z" fill="#F9A826"/>
<path d="M318.114 266.264H282.58V161.624C282.58 158.872 282.038 156.147 280.984 153.605C279.931 151.062 278.388 148.752 276.442 146.806C274.496 144.86 272.186 143.317 269.643 142.263C267.101 141.21 264.376 140.668 261.624 140.668H253.297C247.74 140.668 242.409 142.876 238.479 146.806C234.549 150.736 232.342 156.066 232.342 161.624V266.264H132.111C130.05 266.264 128.023 265.731 126.227 264.716C124.432 263.702 122.929 262.241 121.865 260.475C120.801 258.709 120.211 256.698 120.153 254.637C120.095 252.576 120.571 250.535 121.534 248.712L227.616 47.9312C228.939 45.428 229.74 42.6827 229.973 39.8611C230.205 37.0395 229.863 34.2001 228.968 31.5143C228.073 28.8285 226.642 26.3519 224.763 24.2341C222.884 22.1163 220.596 20.4012 218.036 19.1923L211.774 16.2351C206.911 13.9389 201.352 13.5998 196.246 15.2881C191.141 16.9763 186.879 20.5627 184.344 25.3051L54.9628 267.338C52.7596 271.459 51.6069 276.06 51.6069 280.734V280.734C51.6069 288.27 54.6007 295.498 59.9297 300.827C65.2587 306.156 72.4864 309.15 80.0228 309.15H232.342V375.317C232.342 378.616 232.991 381.882 234.254 384.93C235.516 387.977 237.366 390.746 239.699 393.079C242.031 395.411 244.8 397.262 247.848 398.524C250.895 399.786 254.162 400.436 257.461 400.436H257.461C264.123 400.436 270.512 397.789 275.222 393.079C279.933 388.368 282.58 381.979 282.58 375.317V309.15H318.114C320.93 309.15 323.718 308.595 326.32 307.517C328.921 306.44 331.285 304.86 333.276 302.869C335.268 300.878 336.847 298.514 337.925 295.913C339.002 293.311 339.557 290.523 339.557 287.707V287.707C339.557 284.891 339.002 282.102 337.925 279.501C336.847 276.899 335.268 274.535 333.276 272.544C331.285 270.553 328.921 268.973 326.32 267.896C323.718 266.818 320.93 266.264 318.114 266.264V266.264Z" stroke="#3F3D56" stroke-miterlimit="10"/>
<path d="M984.688 266.264H949.153V161.624C949.153 156.066 946.946 150.736 943.016 146.806C939.086 142.876 933.755 140.668 928.198 140.668H919.871C917.119 140.668 914.394 141.21 911.852 142.263C909.309 143.317 906.999 144.86 905.053 146.806C903.107 148.752 901.564 151.062 900.51 153.605C899.457 156.147 898.915 158.872 898.915 161.624V266.264H798.685C796.623 266.264 794.596 265.731 792.801 264.716C791.006 263.702 789.503 262.241 788.439 260.475C787.374 258.709 786.785 256.698 786.727 254.637C786.669 252.576 787.144 250.535 788.108 248.712L894.19 47.9312C895.513 45.428 896.314 42.6827 896.547 39.8611C896.779 37.0395 896.437 34.2001 895.542 31.5143C894.646 28.8285 893.216 26.3519 891.337 24.2341C889.458 22.1163 887.17 20.4012 884.61 19.1923L878.347 16.2351C873.485 13.9389 867.925 13.5998 862.82 15.2881C857.714 16.9763 853.453 20.5627 850.918 25.3051L721.536 267.338C719.333 271.459 718.181 276.06 718.181 280.734C718.181 288.27 721.174 295.498 726.503 300.827C731.832 306.156 739.06 309.15 746.596 309.15H898.915V375.317C898.915 381.979 901.562 388.368 906.272 393.079C910.983 397.789 917.372 400.436 924.034 400.436V400.436C930.696 400.436 937.085 397.789 941.796 393.079C946.507 388.368 949.153 381.979 949.153 375.317V309.15H984.688C987.504 309.15 990.292 308.595 992.893 307.517C995.495 306.44 997.859 304.86 999.85 302.869C1001.84 300.878 1003.42 298.514 1004.5 295.913C1005.58 293.311 1006.13 290.523 1006.13 287.707V287.707C1006.13 282.02 1003.87 276.565 999.85 272.544C995.829 268.523 990.375 266.264 984.688 266.264V266.264Z" stroke="#3F3D56" stroke-miterlimit="10"/>
<path d="M527.031 0.981934C441.087 0.981934 379.38 56.1213 379.38 184.78C379.38 330.593 441.087 369.19 527.031 369.19C612.975 369.19 678.358 326.917 678.358 184.78C678.358 32.8402 612.975 0.981934 527.031 0.981934ZM527.596 320.79C468.069 320.79 436.97 285.867 436.97 184.874C436.97 95.7622 469.342 48.7694 528.869 48.7694C588.396 48.7694 620.768 79.6372 620.768 184.874C620.768 283.321 587.123 320.79 527.596 320.79V320.79Z" stroke="#3F3D56" stroke-miterlimit="10"/>
<path d="M927.36 251.152C934.486 251.152 940.262 245.376 940.262 238.251C940.262 231.125 934.486 225.349 927.36 225.349C920.235 225.349 914.459 231.125 914.459 238.251C914.459 245.376 920.235 251.152 927.36 251.152Z" fill="#2F2E41"/>
<path d="M958.827 313.77C978.812 313.77 995.013 292.779 995.013 266.885C995.013 240.991 978.812 220 958.827 220C938.842 220 922.641 240.991 922.641 266.885C922.641 292.779 938.842 313.77 958.827 313.77Z" fill="#2F2E41"/>
<path opacity="0.1" d="M958.827 299.61C940.699 299.61 925.686 282.339 923.051 259.805C922.777 262.155 922.64 264.519 922.641 266.885C922.641 292.779 938.842 313.77 958.827 313.77C978.812 313.77 995.013 292.779 995.013 266.885C995.014 264.519 994.877 262.155 994.603 259.805C991.968 282.339 976.954 299.61 958.827 299.61Z" fill="black"/>
<path d="M1032.76 404.012C1031.98 407.206 1028.63 409.763 1024.92 411.55C1017.12 415.307 1007.49 416.428 998.158 416.804C995.777 416.949 993.388 416.905 991.014 416.672C986.413 416.227 982.096 414.243 978.763 411.041C978.525 410.886 978.33 410.673 978.197 410.422C978.064 410.171 977.996 409.891 978 409.607C978.005 409.323 978.081 409.045 978.222 408.798C978.363 408.552 978.564 408.345 978.807 408.197C983.776 402.738 992.069 399.391 1000.42 396.981C1006.76 395.153 1017.8 390.42 1024.71 391.059C1031.4 391.678 1033.74 399.98 1032.76 404.012Z" fill="#3F3D56"/>
<path opacity="0.1" d="M1032.46 404.189C1031.68 407.382 1028.33 409.94 1024.62 411.727C1016.82 415.483 1007.2 416.605 997.863 416.981C995.482 417.126 993.093 417.081 990.719 416.849C986.118 416.404 981.802 414.42 978.468 411.217C978.23 411.062 978.035 410.849 977.902 410.599C977.769 410.348 977.701 410.067 977.705 409.783C977.71 409.499 977.786 409.221 977.927 408.975C978.068 408.728 978.269 408.521 978.512 408.374C983.481 402.915 991.774 399.567 1000.13 397.157C1006.46 395.33 1017.51 390.597 1024.42 391.235C1031.11 391.854 1033.44 400.157 1032.46 404.189Z" fill="black"/>
<path d="M933.263 380.322C930.882 384.989 930.45 390.411 932.065 395.396C933.706 400.344 936.779 404.693 940.894 407.893C950.988 415.985 964.882 417.098 977.818 416.986C989.156 416.887 1000.48 416.111 1011.72 414.662C1015.49 414.328 1019.2 413.468 1022.73 412.108C1026.95 410.281 1030.66 406.93 1032.16 402.582C1033.66 398.234 1032.6 392.909 1029.03 390.008C1025.89 387.458 1021.56 387.107 1017.53 386.865L994.442 385.477C996.723 383.169 999.76 381.863 1002.54 380.185C1006.22 377.959 1008.67 374.221 1011.35 370.85C1015.48 365.916 1019.97 361.298 1024.79 357.033C1025.54 361.344 1028.27 364.883 1031.48 367.857C1034.69 370.832 1038.39 373.226 1041.72 376.058C1049.8 382.916 1055.62 392.224 1064.11 398.558C1069.96 397.022 1075.42 394.294 1080.16 390.546L1076.86 384.564C1076.58 383.949 1076.16 383.414 1075.61 383.012C1074.68 382.437 1073.48 382.733 1072.39 382.57C1069.49 382.135 1068.22 378.786 1067.08 376.083C1063.96 368.661 1057.98 362.903 1052.87 356.679C1049.09 352.085 1045.75 347.157 1042.87 341.956C1041.15 338.854 1039.58 335.625 1037.25 332.953C1034.92 330.281 1031.66 328.18 1028.11 328.172C1024.98 328.166 1022.09 329.756 1019.4 331.355C1011.2 336.228 1003.31 341.604 995.77 347.454C991.826 350.516 987.907 353.751 983.281 355.628C981.333 356.419 979.28 356.959 977.411 357.921C974.138 359.605 971.654 362.455 968.98 364.985C959.442 374.008 946.384 379.854 933.263 380.322Z" fill="#3F3D56"/>
<path d="M981.539 316.098C981.432 318.856 980.845 321.575 979.805 324.131C979.278 325.407 978.494 326.56 977.502 327.518C976.51 328.477 975.33 329.221 974.038 329.704C972.202 330.196 970.278 330.258 968.415 329.887C966.79 329.717 965.224 329.183 963.833 328.326C961.668 326.838 960.589 324.182 960.196 321.583C959.802 318.987 959.979 316.334 959.727 313.719C959.482 311.607 959.08 309.516 958.525 307.464C958.355 306.781 958.182 306.101 958.012 305.422C957.845 304.742 957.682 304.062 957.531 303.383C957.392 302.744 957.263 302.102 957.153 301.457C957.062 300.912 956.98 300.365 956.92 299.814C956.865 298.182 956.593 296.564 956.111 295.003C955.659 293.991 955.093 293.033 954.425 292.149C954.138 291.74 953.862 291.331 953.607 290.906C952.869 289.802 952.527 288.482 952.634 287.159C952.665 286.954 952.714 286.753 952.782 286.558C952.807 286.482 952.836 286.407 952.867 286.334C953.15 286.257 953.41 286.113 953.625 285.912C953.839 285.712 954.001 285.463 954.098 285.186C954.206 284.59 954.155 283.977 953.95 283.408C953.715 282.612 953.393 281.845 952.99 281.12C952.726 280.642 951.829 279.78 951.823 279.232C951.81 278.131 953.962 277.243 954.834 276.809C957.494 275.477 960.461 274.875 963.43 275.066C965.334 275.195 967.398 275.78 968.449 277.376C969.393 278.814 969.267 280.676 969.67 282.347C969.713 282.59 969.815 282.818 969.969 283.011C970.175 283.198 970.433 283.317 970.709 283.351C971.175 283.444 971.653 283.463 972.125 283.408H972.128C972.253 283.398 972.377 283.38 972.499 283.354C973.234 283.219 973.929 282.918 974.532 282.476C974.922 282.372 975.315 282.288 975.712 282.221C975.728 282.22 975.744 282.217 975.759 282.212C977.335 287.187 977.54 292.52 978.83 297.586C979.469 300.107 980.385 302.596 980.514 305.189C980.523 305.302 980.526 305.418 980.529 305.535C980.548 306.369 980.482 307.209 980.517 308.04C980.529 308.414 980.571 308.786 980.643 309.153C980.784 309.744 980.959 310.326 981.168 310.897L981.177 310.925C981.237 311.107 981.294 311.293 981.341 311.479C981.376 311.614 981.407 311.746 981.432 311.882L981.436 311.891C981.668 313.281 981.703 314.698 981.539 316.098V316.098Z" fill="#FBBEBE"/>
<path d="M959.456 283.562C969.709 283.562 978.021 275.25 978.021 264.997C978.021 254.744 969.709 246.432 959.456 246.432C949.203 246.432 940.891 254.744 940.891 264.997C940.891 275.25 949.203 283.562 959.456 283.562Z" fill="#FBBEBE"/>
<path d="M1077.32 366.148C1076.78 361.083 1074.98 356.234 1072.09 352.045C1072.57 354.909 1073.05 357.771 1073.53 360.632C1072.93 360.806 1072.29 360.801 1071.7 360.617C1071.1 360.433 1070.57 360.079 1070.17 359.597C1069.39 358.621 1068.79 357.511 1068.4 356.321C1066.29 351.085 1063.53 346.135 1060.19 341.586C1048.37 340.601 1036.69 335.702 1026.3 329.99C1015.9 324.282 1006.17 317.439 995.913 311.488C994.135 310.413 992.282 309.467 990.369 308.656C987.159 307.369 983.556 306.702 980.513 305.189C980.309 305.088 980.104 304.981 979.903 304.871C979.216 304.497 978.565 304.06 977.958 303.565C977.631 303.299 977.32 303.013 977.027 302.709C975.509 300.943 974.305 298.929 973.468 296.756C971.835 293.143 971.253 288.785 969.623 285.173C970.372 284.473 971.214 283.879 972.125 283.408H972.128C972.26 283.339 972.392 283.272 972.527 283.21C973.172 282.906 973.843 282.66 974.532 282.476C974.922 282.373 975.315 282.288 975.712 282.221C975.728 282.22 975.744 282.217 975.759 282.212C977.598 281.912 979.481 282.061 981.25 282.646C983.836 283.521 986.017 285.267 988.191 286.919C991.724 289.408 995.112 292.095 998.339 294.968C1000.13 296.686 1001.77 298.574 1003.7 300.135C1005.3 301.372 1006.99 302.492 1008.75 303.486C1019.19 309.704 1029.63 315.921 1040.07 322.136C1043.6 324.242 1047.14 326.347 1050.6 328.574C1055.84 331.96 1060.9 335.629 1065.96 339.295C1068.94 341.454 1071.92 343.613 1074.9 345.774C1075.87 346.397 1076.73 347.19 1077.43 348.115C1078.05 349.165 1078.43 350.336 1078.55 351.548C1079.3 356.444 1078.88 361.447 1077.32 366.148V366.148Z" fill="#FBBEBE"/>
<path d="M986.143 330.06C984.89 335.676 979.214 339.072 976.247 344.005C972.559 350.129 974.063 357.246 975.447 364.26C972.918 366.441 970.387 368.622 967.855 370.802C966.457 372.001 965.06 373.206 963.556 374.267C961.363 375.736 959.071 377.052 956.697 378.206C954.456 379.358 952.216 380.511 949.975 381.664C947.893 382.835 945.686 383.77 943.396 384.452C938.981 385.585 934.293 384.792 929.925 383.48C929.41 383.345 928.915 383.143 928.452 382.879C928.18 382.716 927.943 382.501 927.754 382.246C927.323 381.474 927.167 380.579 927.31 379.707C927.754 372.357 929.551 365.16 931.341 358.017C932.298 353.732 933.585 349.527 935.189 345.44C936.763 341.938 938.573 338.547 940.605 335.289C942.848 331.191 945.505 327.333 948.534 323.776C950.009 322.407 951.251 320.806 952.21 319.037C953.327 316.488 952.896 313.565 953.122 310.79C953.295 308.704 953.849 306.669 954.755 304.783V304.78C955.24 303.764 955.824 302.798 956.498 301.897C956.804 302.608 957.109 303.318 957.414 304.028C957.615 304.493 957.815 304.958 958.012 305.422C958.27 306.019 958.526 306.615 958.78 307.209C959.513 308.914 960.245 310.619 960.976 312.322C961.766 314.468 962.892 316.474 964.311 318.266C964.96 319.184 965.836 319.918 966.853 320.396C967.871 320.874 968.994 321.08 970.115 320.994C971.236 320.908 972.315 320.533 973.247 319.906C974.18 319.278 974.933 318.419 975.435 317.413C976.492 315.536 977.259 313.508 977.707 311.4C978.328 308.833 978.414 306.166 977.958 303.565C977.2 298.556 975.07 293.439 973.522 288.785C972.891 287.234 972.527 285.587 972.442 283.914C972.446 283.726 972.464 283.539 972.499 283.354C972.508 283.307 972.518 283.257 972.527 283.209C973.172 282.906 973.843 282.66 974.532 282.476C974.922 282.372 975.315 282.288 975.712 282.221C977.074 289.597 978.439 296.973 979.806 304.349C979.837 304.522 979.872 304.695 979.903 304.871C980.098 305.928 980.296 306.985 980.517 308.04C980.715 308.996 980.929 309.95 981.168 310.897L981.177 310.925C981.259 311.246 981.344 311.564 981.432 311.882L981.435 311.891C981.678 312.759 981.948 313.622 982.254 314.471C984.104 319.591 987.329 324.745 986.143 330.06Z" fill="#F9A826"/>
<path d="M1061.49 408.993C1061.43 410.075 1061.64 411.154 1062.1 412.136C1063.26 414.26 1066.05 414.742 1068.46 414.941C1082.55 416.099 1096.73 415.667 1110.72 413.653C1111.48 413.601 1112.22 413.372 1112.88 412.985C1114.87 411.59 1113.64 408.19 1111.47 407.102C1109.29 406.013 1106.72 406.276 1104.33 405.804C1101.96 405.208 1099.71 404.23 1097.65 402.908C1092.82 400.13 1088.05 397.234 1083.36 394.22C1080.57 392.426 1077.27 390.51 1074.12 391.574C1065.6 394.458 1061.43 399.796 1061.49 408.993Z" fill="#3F3D56"/>
<path d="M957.603 302.989V302.992C957.581 303.124 957.559 303.253 957.53 303.382C957.496 303.596 957.455 303.814 957.414 304.027C957.024 306.026 956.546 308.014 955.995 309.99C954.485 315.45 952.461 320.821 950.454 326.114C945.067 340.305 939.679 354.497 934.289 368.691C932.93 372.265 931.574 375.843 930.029 379.345C929.513 380.513 928.981 381.689 928.452 382.879C926.558 387.136 924.739 391.532 924.135 396.063C923.572 399.045 923.507 402.1 923.943 405.103C924.547 408.074 926.351 410.975 929.173 412.073C930.551 412.611 932.524 413.332 932.147 414.764C931.942 415.55 931.048 415.934 930.246 416.066C929.186 416.235 928.103 416.169 927.072 415.872C926.041 415.575 925.087 415.055 924.28 414.348C922.773 413.011 921.615 410.931 919.61 410.708C918.223 410.557 916.945 411.387 915.674 411.969C910.488 414.339 904.447 412.681 899 410.997C899.428 408.791 901.643 407.338 903.843 406.897C906.042 406.453 908.317 406.768 910.561 406.708C911.279 406.747 911.992 406.563 912.603 406.183C913.15 405.68 913.534 405.025 913.704 404.301C915.149 400.019 916.224 395.621 916.917 391.154C917.641 386.488 917.943 381.749 918.975 377.139C919.777 373.543 921.017 370.059 922.08 366.529C924.137 359.26 925.826 351.892 927.14 344.452C927.805 341.361 928.281 338.233 928.566 335.085C928.745 332.473 928.66 329.849 928.912 327.246C929.334 323.861 930.041 320.517 931.023 317.25C931.986 313.684 932.948 310.121 933.909 306.561C935.334 301.29 936.863 295.815 940.476 291.718C941.73 290.276 943.268 289.106 944.993 288.282C946.718 287.459 948.594 286.998 950.504 286.929C951.22 286.928 951.935 287.005 952.634 287.158C952.751 287.187 952.867 287.215 952.983 287.246C953.746 287.446 954.478 287.749 955.158 288.146C956.272 287.438 956.838 287.687 957.578 288.779C958.226 289.934 958.532 291.251 958.459 292.574C958.521 296.065 958.234 299.555 957.603 302.989Z" fill="#FBBEBE"/>
<path d="M958.827 307.162L958.78 307.209L958.525 307.464L955.995 309.99L954.755 304.783L950.504 286.929C951.22 286.928 951.935 287.005 952.634 287.158C952.665 286.954 952.714 286.753 952.782 286.557L952.984 287.246L954.425 292.149L957.153 301.457L957.603 302.989V302.992L958.827 307.162Z" fill="#F9A826"/>
<path d="M974.881 250.203C974.879 251.856 974.551 253.492 973.916 255.019C973.281 256.545 972.351 257.932 971.18 259.099C970.756 259.523 970.302 259.916 969.82 260.275C967.649 261.912 965.004 262.798 962.284 262.799H947.188C943.853 262.794 940.655 261.465 938.298 259.105C935.941 256.744 934.618 253.545 934.618 250.209C934.618 246.873 935.941 243.674 938.298 241.313C940.655 238.953 943.853 237.624 947.188 237.619H962.284C965.62 237.627 968.817 238.956 971.177 241.313C973.537 243.671 974.869 246.867 974.881 250.203V250.203Z" fill="#2F2E41"/>
<path d="M989.034 251.152C996.16 251.152 1001.94 245.376 1001.94 238.251C1001.94 231.125 996.16 225.349 989.034 225.349C981.909 225.349 976.133 231.125 976.133 238.251C976.133 245.376 981.909 251.152 989.034 251.152Z" fill="#2F2E41"/>
<path opacity="0.1" d="M988.72 225.349C988.562 225.349 988.405 225.356 988.248 225.361C991.585 225.483 994.745 226.894 997.063 229.298C999.382 231.702 1000.68 234.911 1000.68 238.251C1000.68 241.59 999.382 244.799 997.063 247.203C994.745 249.607 991.585 251.018 988.248 251.14C988.405 251.145 988.562 251.152 988.72 251.152C992.141 251.152 995.423 249.792 997.842 247.373C1000.26 244.954 1001.62 241.672 1001.62 238.251C1001.62 234.829 1000.26 231.547 997.842 229.128C995.423 226.709 992.141 225.349 988.72 225.349V225.349Z" fill="black"/>
<path opacity="0.1" d="M927.361 225.349C927.519 225.349 927.676 225.356 927.833 225.361C924.495 225.483 921.335 226.894 919.017 229.298C916.699 231.702 915.403 234.911 915.403 238.251C915.403 241.59 916.699 244.799 919.017 247.203C921.335 249.607 924.495 251.018 927.833 251.14C927.676 251.145 927.519 251.152 927.361 251.152C923.941 251.149 920.662 249.788 918.245 247.369C915.828 244.95 914.471 241.67 914.471 238.251C914.471 234.831 915.828 231.551 918.245 229.132C920.662 226.713 923.941 225.352 927.361 225.349Z" fill="black"/>
<path opacity="0.1" d="M969.82 260.275C967.649 261.912 965.004 262.798 962.284 262.799H947.188C944.469 262.798 941.824 261.912 939.653 260.275H969.82Z" fill="black"/>
<path d="M1067.3 353.756C1067.3 353.756 1070.56 363.127 1073.53 360.632L1071.16 348.382L1067.3 353.756Z" fill="#FBBEBE"/>
<path d="M527.946 214.316C527.954 215.573 527.482 216.786 526.626 217.707C526.222 218.149 525.73 218.502 525.183 218.744C524.636 218.986 524.044 219.113 523.446 219.115H513.446C512.214 219.073 511.049 218.544 510.205 217.644C509.362 216.745 508.909 215.548 508.946 214.316C508.941 213.341 509.226 212.386 509.766 211.574C511.979 211.263 514.211 211.109 516.446 211.115C520.193 211.103 523.929 211.533 527.576 212.396C527.823 213.005 527.948 213.658 527.946 214.316V214.316Z" fill="white"/>
<path d="M471.946 158.115C474.707 158.115 476.946 155.877 476.946 153.115C476.946 150.354 474.707 148.115 471.946 148.115C469.185 148.115 466.946 150.354 466.946 153.115C466.946 155.877 469.185 158.115 471.946 158.115Z" fill="white"/>
</svg>
