<svg width="806" height="809" viewBox="0 0 806 809" fill="none" xmlns="http://www.w3.org/2000/svg">
<g clip-path="url(#clip0)">
<path d="M456.84 770C559.684 770 643.055 755.697 643.055 738.053C643.055 720.409 559.684 706.106 456.84 706.106C353.996 706.106 270.625 720.409 270.625 738.053C270.625 755.697 353.996 770 456.84 770Z" fill="#F2F2F2"/>
<path d="M422.183 760.689C293.109 760.689 192 742.966 192 720.342C192 697.717 293.109 679.995 422.183 679.995C551.257 679.995 652.366 697.717 652.366 720.342C652.366 742.966 551.257 760.689 422.183 760.689ZM422.183 682.064C298.533 682.064 194.069 699.593 194.069 720.342C194.069 741.091 298.533 758.62 422.183 758.62C545.834 758.62 650.297 741.091 650.297 720.342C650.297 699.593 545.834 682.064 422.183 682.064Z" fill="#F2F2F2"/>
<path d="M689 413.153C689.014 433.835 686.983 454.467 682.938 474.75C682.317 477.874 681.645 480.985 680.92 484.081C680.496 485.944 680.051 487.799 679.586 489.647C679.286 490.847 678.975 492.047 678.655 493.247C667.142 536.661 646.454 577.102 617.986 611.841C589.518 646.581 553.931 674.813 513.627 694.632C500.4 701.145 486.723 706.701 472.701 711.257C470.57 711.95 468.428 712.623 466.276 713.274H466.266C436.842 722.152 406.271 726.648 375.538 726.62C371.131 726.62 366.786 726.52 362.503 726.32C350.909 725.814 339.362 724.531 327.939 722.482C187.564 697.115 118.799 558.879 62.0752 413.153C60.6683 409.543 59.2855 405.956 57.9268 402.394C57.5957 401.515 57.2647 400.635 56.9337 399.756C-93.9421 0.794239 69.679 -100.167 375.538 99.6863C520.465 194.378 689 240.033 689 413.153Z" fill="#F2F2F2"/>
<path d="M472.339 600.352L470.904 598.861C471.13 598.645 493.515 576.717 502.04 535.746C509.914 497.905 507.24 435.6 449.786 353.673C405.721 290.838 387.889 235.942 396.786 190.507C404.601 150.593 431.183 133.058 431.451 132.886L432.572 134.625C432.312 134.793 406.427 151.914 398.803 190.97C390.049 235.819 407.772 290.161 451.48 352.485C477.04 388.933 494.057 424.627 502.055 458.574C508.464 485.778 509.131 511.929 504.038 536.299C495.354 577.849 472.568 600.132 472.339 600.352Z" fill="#F2F2F2"/>
<path d="M85.0728 357.815C75.0223 372.041 65.9526 386.935 57.9268 402.394C57.5957 401.515 57.2647 400.635 56.9337 399.756C64.8109 384.825 73.6435 370.419 83.3762 356.626C127.085 294.294 144.806 239.96 136.054 195.113C128.43 156.048 102.546 138.927 102.287 138.761L103.405 137.023C103.674 137.199 130.261 154.734 138.072 194.647C146.969 240.084 129.133 294.977 85.0728 357.815Z" fill="#F2F2F2"/>
<path d="M252.984 696.565L251.55 695.074C251.834 694.801 280.056 667.166 290.812 615.521C300.745 567.832 297.39 489.316 225 386.092C194.754 342.962 174.127 302.213 163.693 264.977C155.168 234.551 153.363 206.267 158.329 180.91C168.145 130.777 201.511 108.767 201.847 108.551L202.968 110.29C202.639 110.502 169.97 132.098 160.346 181.372C149.305 237.904 171.628 306.382 226.694 384.904C258.849 430.756 280.254 475.655 290.315 518.354C298.374 552.56 299.213 585.438 292.81 616.076C281.896 668.296 253.272 696.288 252.984 696.565Z" fill="white"/>
<path d="M183.524 224.019C227.755 224.019 263.612 188.162 263.612 143.93C263.612 99.6987 227.755 63.8419 183.524 63.8419C139.293 63.8419 103.437 99.6987 103.437 143.93C103.437 188.162 139.293 224.019 183.524 224.019Z" fill="white"/>
<path d="M202.407 218.542C180.825 218.542 159.728 212.142 141.783 200.152C123.838 188.162 109.852 171.119 101.593 151.18C93.3341 131.241 91.1731 109.3 95.3835 88.1325C99.5938 66.965 109.986 47.5214 125.247 32.2605C140.508 16.9995 159.951 6.6067 181.118 2.39618C202.285 -1.81434 224.226 0.34658 244.165 8.60568C264.104 16.8648 281.146 30.8511 293.136 48.796C305.127 66.7409 311.527 87.8384 311.527 109.421C311.494 138.351 299.987 166.088 279.53 186.545C259.073 207.002 231.337 218.509 202.407 218.542ZM202.407 2.36849C181.234 2.36844 160.537 8.64691 142.933 20.41C125.328 32.173 111.607 48.8923 103.505 68.4535C95.4022 88.0148 93.2822 109.539 97.4128 130.306C101.543 151.072 111.739 170.147 126.71 185.118C141.682 200.09 160.756 210.286 181.522 214.416C202.288 218.547 223.812 216.427 243.373 208.324C262.934 200.222 279.653 186.5 291.416 168.896C303.179 151.291 309.458 130.594 309.457 109.421C309.425 81.0384 298.137 53.828 278.068 33.7588C257.999 13.6896 230.789 2.40064 202.407 2.36849Z" fill="white"/>
<path d="M263.612 392.009C300.291 392.009 330.026 362.274 330.026 325.594C330.026 288.914 300.291 259.18 263.612 259.18C226.932 259.18 197.198 288.914 197.198 325.594C197.198 362.274 226.932 392.009 263.612 392.009Z" fill="white"/>
<path d="M229.754 622.508C266.433 622.508 296.168 592.773 296.168 556.093C296.168 519.413 266.433 489.678 229.754 489.678C193.074 489.678 163.34 519.413 163.34 556.093C163.34 592.773 193.074 622.508 229.754 622.508Z" fill="white"/>
<path d="M466.576 80.03C475.147 80.03 482.094 73.0823 482.094 64.5118C482.094 55.9414 475.147 48.9937 466.576 48.9937C458.006 48.9937 451.058 55.9414 451.058 64.5118C451.058 73.0823 458.006 80.03 466.576 80.03Z" fill="#F2F2F2"/>
</g>
<rect x="57" y="121.455" width="525.32" height="321.868" rx="50" fill="#7193A3"/>
<path d="M436.105 186.508C429.542 186.503 423.067 187.99 417.191 190.852C411.314 193.713 406.195 197.871 402.238 202.999C397.991 201.209 393.356 200.48 388.75 200.877C384.144 201.275 379.71 202.786 375.848 205.275C371.986 207.764 368.815 211.154 366.62 215.14C364.426 219.125 363.277 223.582 363.276 228.11H478.589C478.589 222.647 477.49 217.237 475.355 212.19C473.22 207.142 470.091 202.556 466.146 198.693C462.201 194.83 457.517 191.766 452.363 189.675C447.209 187.584 441.684 186.508 436.105 186.508V186.508Z" fill="#E6E6E6"/>
<path d="M183.485 349.35C221.27 349.35 251.9 319.355 251.9 282.355C251.9 245.354 221.27 215.36 183.485 215.36C145.701 215.36 115.07 245.354 115.07 282.355C115.07 319.355 145.701 349.35 183.485 349.35Z" fill="#F9A826"/>
<path d="M584.216 420.422C581.707 421.001 579.137 421.292 576.559 421.288H119.815C114.19 421.298 108.655 419.906 103.73 417.244L104.948 415.532L155.907 343.674L231.421 237.218L232.524 235.659L244.405 218.909C245.204 217.782 246.269 216.861 247.51 216.225C248.751 215.589 250.131 215.257 251.532 215.257C252.933 215.257 254.313 215.589 255.554 216.225C256.795 216.861 257.861 217.782 258.659 218.909L298.133 274.547V274.557L321.354 307.302L376.788 385.446L460.864 267.925C461.665 266.804 462.73 265.889 463.969 265.257C465.207 264.625 466.584 264.295 467.981 264.295C469.377 264.295 470.754 264.625 471.992 265.257C473.231 265.889 474.296 266.804 475.097 267.925L529.032 343.308L532.133 347.638L584.216 420.422Z" fill="#3F3D56"/>
<path d="M345.305 255.974C337.207 255.968 329.219 257.802 321.968 261.333C314.718 264.863 308.403 269.993 303.521 276.319C298.281 274.111 292.562 273.211 286.879 273.702C281.197 274.192 275.727 276.056 270.961 279.128C266.196 282.199 262.284 286.381 259.577 291.298C256.869 296.216 255.451 301.714 255.45 307.301H397.72C397.72 300.56 396.364 293.886 393.73 287.659C391.096 281.431 387.235 275.773 382.368 271.007C377.501 266.241 371.722 262.46 365.363 259.881C359.004 257.301 352.188 255.974 345.305 255.974V255.974Z" fill="#CCCCCC"/>
<path d="M576.559 422.307H119.815C115.305 422.311 110.839 421.444 106.671 419.756C102.504 418.068 98.7174 415.591 95.5284 412.469C92.3394 409.346 89.8105 405.638 88.0866 401.557C86.3626 397.476 85.4773 393.102 85.4814 388.686V133.736C85.4917 124.822 89.1123 116.276 95.5489 109.973C101.986 103.67 110.712 100.125 119.815 100.115H576.559C585.661 100.125 594.388 103.67 600.825 109.973C607.262 116.276 610.882 124.822 610.893 133.736V388.686C610.898 393.103 610.013 397.477 608.29 401.558C606.566 405.64 604.037 409.348 600.848 412.471C597.659 415.594 593.872 418.07 589.704 419.758C585.536 421.446 581.069 422.312 576.559 422.307V422.307ZM119.815 102.152C111.264 102.162 103.066 105.492 97.0196 111.413C90.9731 117.334 87.5719 125.362 87.5622 133.736V388.686C87.5582 392.835 88.3898 396.943 90.0092 400.777C91.6286 404.611 94.0042 408.094 97 411.028C99.9957 413.961 103.553 416.287 107.468 417.873C111.383 419.459 115.579 420.273 119.815 420.269H576.559C580.796 420.274 584.992 419.461 588.907 417.875C592.823 416.29 596.38 413.963 599.376 411.03C602.372 408.096 604.748 404.612 606.367 400.778C607.986 396.944 608.817 392.835 608.812 388.686V133.736C608.802 125.362 605.401 117.335 599.354 111.414C593.308 105.493 585.11 102.162 576.559 102.152H119.815Z" fill="#3F3D56"/>
<g clip-path="url(#clip1)">
<path d="M32.5737 529.349H291.423C294.793 529.349 298.025 530.688 300.408 533.072C302.791 535.455 304.13 538.688 304.13 542.059V562.249H19.8671V542.059C19.8671 538.688 21.2058 535.455 23.5887 533.072C25.9717 530.688 29.2037 529.349 32.5737 529.349Z" fill="#3F3D56"/>
<path d="M286.51 526.999C285.231 527.004 283.962 527.221 282.753 527.639C282.339 525.97 281.328 524.511 279.911 523.537C278.495 522.563 276.771 522.141 275.065 522.352C273.359 522.562 271.789 523.39 270.651 524.679C269.514 525.968 268.887 527.629 268.891 529.349C268.891 529.384 268.899 529.417 268.9 529.452C268.019 529.535 267.15 529.715 266.308 529.989C266.069 529.04 265.637 528.151 265.037 527.378C264.437 526.605 263.684 525.965 262.824 525.498C265.082 524.249 266.868 522.294 267.908 519.932C273.656 519.838 278.288 515.682 278.288 510.549C278.288 505.357 273.555 501.149 267.716 501.149C266.437 501.154 265.168 501.371 263.959 501.789C263.742 500.864 263.34 499.994 262.778 499.229C262.215 498.464 261.504 497.822 260.686 497.34C259.868 496.858 258.961 496.547 258.02 496.425C257.079 496.304 256.123 496.374 255.209 496.632C254.296 496.891 253.445 497.331 252.706 497.928C251.968 498.524 251.358 499.264 250.914 500.103C250.469 500.942 250.199 501.862 250.12 502.808C250.041 503.754 250.154 504.706 250.453 505.608C250.172 505.803 249.91 506.023 249.648 506.241C248.319 505.097 246.593 504.522 244.844 504.641C243.94 502.046 242.153 499.852 239.794 498.442C237.436 497.033 234.656 496.499 231.944 496.934C229.231 497.368 226.758 498.744 224.957 500.819C223.156 502.895 222.143 505.538 222.095 508.286C221.153 508.36 220.222 508.546 219.323 508.839C219.222 508.441 219.086 508.053 218.917 507.679C219.845 506.86 220.59 505.856 221.105 504.731C221.619 503.606 221.892 502.386 221.905 501.149C221.905 495.957 217.172 491.749 211.333 491.749C210.054 491.754 208.785 491.971 207.576 492.389C207.359 491.464 206.958 490.594 206.395 489.829C205.832 489.064 205.121 488.422 204.303 487.94C203.485 487.458 202.579 487.147 201.637 487.025C200.696 486.904 199.74 486.974 198.827 487.232C197.913 487.491 197.062 487.931 196.324 488.528C195.585 489.124 194.976 489.864 194.531 490.703C194.086 491.542 193.816 492.462 193.737 493.408C193.658 494.354 193.771 495.306 194.07 496.207C192.591 497.235 191.369 498.59 190.498 500.167C189.627 501.744 189.131 503.5 189.049 505.3C188.95 505.388 188.836 505.46 188.742 505.554C188.918 504.883 189.01 504.192 189.015 503.499C189.015 498.307 184.282 494.099 178.443 494.099C177.164 494.104 175.895 494.321 174.686 494.739C174.47 493.814 174.068 492.944 173.505 492.179C172.943 491.414 172.231 490.772 171.413 490.29C170.596 489.808 169.689 489.497 168.748 489.375C167.806 489.254 166.85 489.324 165.937 489.582C165.024 489.841 164.172 490.281 163.434 490.878C162.695 491.474 162.086 492.214 161.641 493.053C161.197 493.892 160.927 494.812 160.847 495.758C160.768 496.704 160.882 497.656 161.181 498.557C159.621 499.636 158.346 501.076 157.466 502.755C156.585 504.435 156.125 506.302 156.125 508.199C156.125 510.095 156.585 511.963 157.466 513.642C158.346 515.322 159.621 516.762 161.181 517.84C160.705 519.206 160.705 520.692 161.181 522.058C160.003 522.879 158.985 523.908 158.175 525.093C157.74 523.515 156.766 522.139 155.423 521.204C154.079 520.269 152.45 519.834 150.82 519.975C149.189 520.116 147.659 520.824 146.496 521.975C145.332 523.127 144.609 524.65 144.451 526.28C143.51 525.728 142.492 525.317 141.431 525.059C143.334 523.803 144.833 522.022 145.746 519.932C151.493 519.838 156.125 515.682 156.125 510.549C156.125 505.357 151.392 501.149 145.553 501.149C144.275 501.154 143.005 501.371 141.797 501.789C141.58 500.864 141.178 499.994 140.615 499.229C140.053 498.464 139.341 497.822 138.523 497.34C137.706 496.858 136.799 496.547 135.858 496.425C134.916 496.304 133.96 496.374 133.047 496.632C132.134 496.891 131.282 497.331 130.544 497.928C129.806 498.524 129.196 499.264 128.751 500.103C128.307 500.942 128.037 501.862 127.958 502.808C127.878 503.754 127.992 504.706 128.291 505.607C128.14 505.712 128.004 505.836 127.859 505.947C127.492 505.913 127.136 505.849 126.759 505.849C125.48 505.854 124.211 506.071 123.002 506.489C122.958 506.311 122.885 506.147 122.827 505.975C123.055 504.929 123.037 503.844 122.774 502.806C122.512 501.768 122.013 500.805 121.316 499.993C120.619 499.18 119.743 498.541 118.757 498.124C117.771 497.707 116.702 497.525 115.633 497.591C115.022 495.887 114.024 494.348 112.719 493.093C111.413 491.839 109.836 490.904 108.109 490.361C106.382 489.817 104.554 489.681 102.765 489.962C100.977 490.244 99.2786 490.935 97.8019 491.982C96.3253 493.029 95.1108 494.404 94.2534 495.999C93.3961 497.593 92.9191 499.365 92.8599 501.174C92.8006 502.984 93.1606 504.783 93.9118 506.43C94.6629 508.077 95.7848 509.529 97.1898 510.67C96.3815 510.763 95.5846 510.937 94.811 511.189C94.5332 510.043 93.9701 508.986 93.1741 508.117C92.3781 507.247 91.3751 506.593 90.2584 506.216C89.1418 505.839 87.9479 505.75 86.7879 505.959C85.6278 506.167 84.5395 506.666 83.6241 507.409C82.5771 506.165 81.2672 505.169 79.7888 504.493C78.3105 503.817 76.7005 503.477 75.0751 503.499C73.7962 503.504 72.5269 503.721 71.3182 504.139C71.1013 503.214 70.6995 502.344 70.1369 501.579C69.5743 500.814 68.8627 500.172 68.045 499.69C67.2273 499.208 66.3205 498.897 65.3792 498.775C64.438 498.654 63.4818 498.724 62.5686 498.982C61.6553 499.241 60.8038 499.681 60.0655 500.278C59.3272 500.874 58.7173 501.614 58.2728 502.453C57.8283 503.292 57.5583 504.212 57.4792 505.158C57.4 506.104 57.5133 507.056 57.8123 507.958C56.253 509.036 54.9785 510.476 54.098 512.156C53.2176 513.835 52.7574 515.703 52.7569 517.599C52.7569 517.635 52.7674 517.669 52.7677 517.705C51.1018 517.452 49.399 517.636 47.8254 518.239C47.6085 517.314 47.2067 516.444 46.6441 515.679C46.0815 514.915 45.3699 514.272 44.5522 513.79C43.7345 513.308 42.8277 512.997 41.8864 512.875C40.9452 512.754 39.9891 512.824 39.0758 513.083C38.1625 513.341 37.3111 513.781 36.5727 514.378C35.8344 514.974 35.2246 515.714 34.7801 516.553C34.3356 517.392 34.0656 518.312 33.9864 519.258C33.9073 520.204 34.0206 521.157 34.3195 522.058C32.0538 523.592 30.3974 525.872 29.6384 528.501C28.8793 531.131 29.0656 533.943 30.1649 536.449C31.2642 538.956 33.2069 540.997 35.6551 542.219C38.1034 543.441 40.9023 543.765 43.5652 543.137C43.9892 545.588 45.183 547.841 46.9735 549.569C48.764 551.296 51.058 552.407 53.5227 552.742C55.9875 553.077 58.4949 552.618 60.6811 551.431C62.8673 550.245 64.6187 548.392 65.6813 546.142C66.6435 548.179 68.1725 549.894 70.085 551.084C71.9975 552.273 74.2122 552.885 76.4638 552.847C78.7153 552.809 80.9082 552.122 82.7794 550.869C84.6506 549.616 86.1208 547.85 87.0138 545.782C88.398 545.762 89.7678 545.497 91.0593 544.998C91.8358 547.224 93.2661 549.164 95.1628 550.563C97.0596 551.963 99.3345 552.757 101.69 552.841C104.045 552.926 106.371 552.297 108.364 551.038C110.356 549.778 111.922 547.946 112.856 545.782C114.569 545.748 116.252 545.331 117.783 544.562C118.855 546.457 120.435 548.016 122.344 549.062C124.254 550.108 126.417 550.599 128.591 550.482C130.765 550.364 132.862 549.642 134.648 548.397C136.434 547.151 137.836 545.432 138.698 543.432C139.328 543.416 139.956 543.351 140.576 543.235C141.455 545.368 142.943 547.194 144.853 548.486C146.764 549.777 149.012 550.477 151.318 550.498C153.624 550.519 155.885 549.86 157.819 548.604C159.752 547.347 161.273 545.548 162.191 543.432C163.113 543.406 164.03 543.271 164.921 543.029C167.281 543.687 169.791 543.57 172.081 542.696C174.371 541.821 176.319 540.235 177.641 538.17C176.903 541.031 177.27 544.066 178.67 546.669C180.07 549.271 182.399 551.25 185.193 552.211C187.987 553.172 191.04 553.043 193.744 551.852C196.447 550.66 198.602 548.493 199.779 545.782C201.492 545.748 203.176 545.331 204.707 544.562C205.779 546.457 207.358 548.016 209.268 549.062C211.177 550.108 213.34 550.599 215.514 550.482C217.688 550.364 219.786 549.642 221.571 548.397C223.357 547.151 224.76 545.432 225.621 543.432C227.334 543.398 229.018 542.981 230.549 542.212C231.375 543.685 232.512 544.96 233.88 545.948C235.249 546.937 236.816 547.615 238.474 547.937C240.131 548.258 241.838 548.214 243.477 547.809C245.116 547.403 246.646 546.646 247.963 545.588C248.371 547.836 249.427 549.916 251.003 551.57C252.579 553.224 254.604 554.38 256.829 554.897C259.054 555.413 261.381 555.266 263.524 554.474C265.666 553.683 267.53 552.281 268.886 550.442C270.296 551.523 271.934 552.267 273.675 552.619C275.416 552.97 277.215 552.919 278.933 552.469C280.652 552.02 282.245 551.184 283.591 550.025C284.938 548.866 286.002 547.415 286.703 545.782C292.45 545.688 297.082 541.532 297.082 536.399C297.082 531.207 292.349 526.999 286.51 526.999ZM76.5359 522.149C76.5236 522.205 76.515 522.264 76.5034 522.321C76.4177 522.317 76.3364 522.299 76.2497 522.299C75.8987 522.308 75.5488 522.343 75.203 522.404C75.2221 522.362 75.2489 522.324 75.2674 522.282C75.6923 522.26 76.1158 522.216 76.5359 522.149ZM174.686 518.239C174.652 518.102 174.594 517.976 174.551 517.843C176.345 516.598 177.759 514.881 178.636 512.882C180.18 512.873 181.706 512.54 183.114 511.902C184.521 511.265 185.778 510.338 186.804 509.182C186.713 509.632 186.667 510.09 186.666 510.549C186.676 511.266 186.796 511.977 187.023 512.658C185.005 514.064 183.479 516.067 182.656 518.384C180.101 517.39 177.276 517.338 174.686 518.239V518.239ZM245.048 519.115C245.043 518.971 245.061 518.822 245.052 518.679C245.351 518.678 245.65 518.658 245.947 518.619C246.403 520.139 247.165 521.55 248.185 522.766C247.963 522.828 247.73 522.865 247.514 522.939C247.135 521.428 246.268 520.084 245.048 519.115Z" fill="#FFD5A7"/>
<path d="M43.5319 541.099C40.1996 541.099 36.9022 541.778 33.8409 543.094C30.7796 544.411 28.0185 546.338 25.7263 548.757C23.4341 551.177 21.6587 554.038 20.5086 557.166C19.3584 560.295 18.8575 563.625 19.0366 566.954L34.9447 785.775C35.2801 792.047 38.0072 797.951 42.5642 802.272C47.1213 806.593 53.1612 809.001 59.44 809H264.557C270.836 809.001 276.875 806.593 281.433 802.272C285.99 797.951 288.717 792.047 289.052 785.775L304.96 566.954C305.139 563.625 304.638 560.295 303.488 557.166C302.338 554.038 300.563 551.177 298.27 548.757C295.978 546.338 293.217 544.411 290.156 543.094C287.095 541.778 283.797 541.099 280.465 541.099H43.5319Z" fill="#3F3D56"/>
<path d="M69.2019 541.099H55.1062V809H69.2019V541.099Z" fill="#F9A826"/>
<path d="M109.14 541.099H95.0439V809H109.14V541.099Z" fill="#F9A826"/>
<path d="M149.077 541.099H134.982V809H149.077V541.099Z" fill="#F9A826"/>
<path d="M189.015 541.099H174.919V809H189.015V541.099Z" fill="#F9A826"/>
<path d="M228.953 541.099H214.857V809H228.953V541.099Z" fill="#F9A826"/>
<path d="M268.891 541.099H254.795V809H268.891V541.099Z" fill="#F9A826"/>
<path d="M366.543 732.163C365.834 732.163 365.155 732.445 364.654 732.946C364.152 733.447 363.87 734.127 363.869 734.836V806.886C363.87 807.595 364.152 808.275 364.654 808.776C365.155 809.277 365.834 809.559 366.543 809.559H490.536C491.244 809.559 491.924 809.277 492.425 808.776C492.926 808.275 493.209 807.595 493.21 806.886V734.836C493.209 734.127 492.926 733.447 492.425 732.946C491.924 732.445 491.244 732.163 490.536 732.163H366.543Z" fill="#3F3D56"/>
<path d="M380.4 738.517C379.079 738.518 377.813 739.044 376.879 739.978C375.945 740.912 375.42 742.178 375.418 743.499V798.223C375.42 799.544 375.945 800.81 376.879 801.744C377.813 802.678 379.079 803.204 380.4 803.205H476.679C478 803.204 479.266 802.678 480.2 801.744C481.134 800.81 481.659 799.544 481.66 798.223V743.499C481.659 742.178 481.134 740.912 480.2 739.978C479.266 739.044 478 738.518 476.679 738.517L380.4 738.517Z" fill="#FF6584"/>
<path d="M367.937 755.896H303.349V770.861H367.937V755.896Z" fill="#3F3D56"/>
<path d="M190.961 732.163C190.253 732.164 189.574 732.446 189.073 732.947C188.572 733.448 188.29 734.127 188.289 734.836V806.886C188.29 807.595 188.572 808.274 189.073 808.775C189.574 809.276 190.253 809.558 190.961 809.559H314.956C315.664 809.558 316.343 809.276 316.844 808.775C317.345 808.274 317.626 807.595 317.628 806.886V734.836C317.626 734.127 317.345 733.448 316.844 732.947C316.343 732.446 315.664 732.164 314.956 732.163H190.961Z" fill="#3F3D56"/>
<path d="M204.82 738.517C203.499 738.518 202.232 739.043 201.298 739.977C200.363 740.911 199.838 742.178 199.836 743.499V798.223C199.838 799.544 200.363 800.811 201.298 801.745C202.232 802.679 203.499 803.204 204.82 803.205H301.097C302.418 803.204 303.684 802.679 304.619 801.745C305.553 800.811 306.079 799.544 306.08 798.223V743.499C306.079 742.178 305.553 740.911 304.619 739.977C303.684 739.043 302.418 738.518 301.097 738.517L204.82 738.517Z" fill="#F9A826"/>
<path d="M685.4 414.128L679.255 399.157L597.325 432.804C595.47 433.567 593.884 434.864 592.767 436.53C591.65 438.197 591.054 440.158 591.053 442.164V530.711H607.236V446.25L685.4 414.128Z" fill="#3F3D56"/>
<path d="M692.525 522.64H511.637V540.29H692.525V522.64Z" fill="#3F3D56"/>
<path d="M522.664 527.053H680.762L657.227 791.859H549.139L522.664 527.053Z" fill="#3F3D56"/>
</g>
<defs>
<clipPath id="clip0">
<rect width="689" height="770" fill="white"/>
</clipPath>
<clipPath id="clip1">
<rect width="787" height="454" fill="white" transform="translate(19 355)"/>
</clipPath>
</defs>
</svg>
