<svg width="133" height="49" viewBox="0 0 133 49" fill="none" xmlns="http://www.w3.org/2000/svg">
<ellipse cx="24.579" cy="24.3363" rx="23.7064" ry="23.7569" fill="#141D19"/>
<path d="M41.9928 7.17736C38.5529 3.7506 34.1699 1.4168 29.3983 0.471098C24.6267 -0.474602 19.6806 0.0103217 15.1857 1.86453C10.6908 3.71875 6.84885 6.85903 4.14581 10.8881C1.44276 14.9172 0 19.6542 0 24.5C0 29.3458 1.44276 34.0828 4.14581 38.1119C6.84885 42.141 10.6908 45.2813 15.1857 47.1355C19.6806 48.9897 24.6267 49.4746 29.3983 48.5289C34.1699 47.5832 38.5529 45.2494 41.9928 41.8226C46.6049 37.2281 49.1959 30.9971 49.1959 24.5C49.1959 18.003 46.6049 11.7719 41.9928 7.17736ZM6.41523 16.2089C7.6547 13.4707 9.49129 11.042 11.7915 9.09947C14.0917 7.15697 16.7977 5.74945 19.7125 4.97936C22.6275 4.20927 25.678 4.09596 28.6424 4.64765C31.6068 5.19934 34.4105 6.40211 36.8496 8.16856C30.8119 7.6006 23.2537 10.6742 17.1266 16.7658C14.8141 19.0653 12.855 21.6921 11.3125 24.5613C9.21456 22.0752 7.55833 19.2504 6.41523 16.2089ZM19.9776 44.6289C15.309 43.383 11.2392 40.52 8.49937 36.5541C5.75952 32.5882 4.52901 27.7793 5.02887 22.991C7.56685 28.4813 13.9736 33.4703 22.3816 35.6976C25.5204 36.5457 28.769 36.9211 32.0195 36.8113C30.9148 39.8549 29.3005 42.6902 27.2452 45.1969C24.8068 45.4426 22.3439 45.2426 19.9776 44.6067V44.6289ZM35.2843 21.3428C34.4555 18.2024 33.1671 15.2005 31.4604 12.4338C34.6573 11.8669 37.9275 11.8443 41.1319 12.3669C42.5662 14.3447 43.6235 16.568 44.2513 18.9262C45.5043 23.577 45.0511 28.5205 42.973 32.8682C40.8949 37.216 37.3283 40.6831 32.914 42.6467C36.4024 37.7356 37.5205 29.6839 35.2843 21.3428Z" fill="#F9A826"/>
<path d="M67.8806 8.00653C68.8651 8.00653 69.5761 8.17734 70.0137 8.51895C70.4649 8.86056 70.6906 9.38664 70.6906 10.0972C70.6906 11.1357 70.4581 11.9897 69.9932 12.6593C69.542 13.3288 68.9882 13.7456 68.3318 13.9096L68.3113 14.0326C69.542 14.2649 70.1573 15.0779 70.1573 16.4717C70.1573 17.7015 69.8223 18.7332 69.1523 19.5667C68.4822 20.4002 67.5387 20.817 66.3218 20.817H59.307L61.5632 8.00653H67.8806ZM65.6244 15.7133H64.0861L63.7169 17.804H65.2347C65.5765 17.804 65.8363 17.6673 66.0141 17.394C66.1919 17.1207 66.2807 16.7723 66.2807 16.3487C66.2807 15.9251 66.062 15.7133 65.6244 15.7133ZM66.1987 10.8146H64.968L64.6194 12.7208H65.8295C66.4585 12.7208 66.773 12.2767 66.773 11.3885C66.773 11.0059 66.5816 10.8146 66.1987 10.8146ZM58.6917 20.7555L49.9951 19.8331H58.8558L58.6917 20.7555ZM59.3891 16.7996L50.6925 15.8773H59.5532L59.3891 16.7996ZM59.7378 14.8319L51.0412 13.9096H59.9019L59.7378 14.8319ZM60.0865 12.8643L51.3899 11.9419H60.2505L60.0865 12.8643ZM60.4351 10.8966L51.7385 9.97422H60.5787L60.4351 10.8966ZM59.0404 18.7673L50.3438 17.845H59.2045L59.0404 18.7673ZM60.7633 8.92888L52.0872 8.00653H60.9274L60.7633 8.92888Z" fill="white"/>
<path d="M81.0365 9.76925C82.5133 9.76925 83.5662 10.0562 84.1952 10.6301C84.8242 11.1904 85.1387 12.0717 85.1387 13.2742C85.1387 13.8618 85.0635 14.5723 84.9131 15.4058C84.5712 17.3735 83.9696 18.8083 83.1081 19.7102C82.2467 20.612 80.8929 21.0629 79.047 21.0629C77.5975 21.0629 76.5652 20.7828 75.9498 20.2226C75.3345 19.6487 75.0268 18.7673 75.0268 17.5785C75.0268 16.9636 75.1021 16.2394 75.2525 15.4058C75.5943 13.4382 76.1891 12.0102 77.0369 11.122C77.8847 10.2202 79.2179 9.76925 81.0365 9.76925ZM79.6418 17.9474C80.0383 17.9474 80.3323 17.8996 80.5238 17.804C80.7289 17.7083 80.8656 17.4965 80.934 17.1686L81.7134 12.8848H80.4622C80.0794 12.8848 79.7785 12.9326 79.5597 13.0282C79.3546 13.1239 79.2316 13.3288 79.1905 13.6431L78.4316 17.9474H79.6418ZM74.5346 15.8773C74.4799 16.3009 74.4457 16.5878 74.432 16.7381L66.3508 15.8773H74.5346ZM74.9243 13.9096L74.7397 14.7705L66.72 13.9096H74.9243ZM74.4115 17.845C74.4115 18.0636 74.4389 18.3505 74.4936 18.7058L66.4328 17.845H74.4115ZM75.6422 11.9419C75.4781 12.2972 75.3619 12.5705 75.2935 12.7618L67.5404 11.9419H75.6422ZM74.8422 19.8331C75.0063 20.1611 75.1841 20.4139 75.3755 20.5915L68.2172 19.8331H74.8422ZM77.4266 9.97422C77.0984 10.1655 76.8181 10.391 76.5857 10.6506L70.2888 9.97422H77.4266Z" fill="white"/>
<path d="M96.1897 9.76925C97.6665 9.76925 98.7194 10.0562 99.3484 10.6301C99.9774 11.1904 100.292 12.0717 100.292 13.2742C100.292 13.8618 100.217 14.5723 100.066 15.4058C99.7244 17.3735 99.1228 18.8083 98.2613 19.7102C97.3998 20.612 96.0461 21.0629 94.2002 21.0629C92.7507 21.0629 91.7183 20.7828 91.103 20.2226C90.4877 19.6487 90.18 18.7673 90.18 17.5785C90.18 16.9636 90.2552 16.2394 90.4057 15.4058C90.7475 13.4382 91.3423 12.0102 92.1901 11.122C93.0379 10.2202 94.3711 9.76925 96.1897 9.76925ZM94.795 17.9474C95.1915 17.9474 95.4855 17.8996 95.6769 17.804C95.882 17.7083 96.0188 17.4965 96.0872 17.1686L96.8666 12.8848H95.6154C95.2325 12.8848 94.9317 12.9326 94.7129 13.0282C94.5078 13.1239 94.3848 13.3288 94.3437 13.6431L93.5848 17.9474H94.795ZM89.6878 15.8773C89.6331 16.3009 89.5989 16.5878 89.5852 16.7381L81.5039 15.8773H89.6878ZM90.0775 13.9096L89.8929 14.7705L81.8731 13.9096H90.0775ZM89.5647 17.845C89.5647 18.0636 89.5921 18.3505 89.6468 18.7058L81.586 17.845H89.5647ZM90.7954 11.9419C90.6313 12.2972 90.515 12.5705 90.4467 12.7618L82.6936 11.9419H90.7954ZM89.9954 19.8331C90.1595 20.1611 90.3373 20.4139 90.5287 20.5915L83.3704 19.8331H89.9954ZM92.5798 9.97422C92.2516 10.1655 91.9713 10.391 91.7389 10.6506L85.442 9.97422H92.5798Z" fill="white"/>
<path d="M110.235 20.817L109.271 17.2711H109.148L108.533 20.817H105.087L106.974 9.97422H110.44L109.846 13.2947H109.948L112.061 9.97422H115.814L112.368 15.2829L113.989 20.817H110.235ZM104.41 20.7555L95.7136 19.8331H104.574L104.41 20.7555ZM105.108 16.7996L96.411 15.8773H105.272L105.108 16.7996ZM105.456 14.8319L96.7597 13.9096H105.62L105.456 14.8319ZM105.805 12.8643L97.1084 11.9419H105.969L105.805 12.8643ZM106.154 10.8966L97.4571 9.97422H106.297L106.154 10.8966ZM104.759 18.7673L96.0623 17.845H104.923L104.759 18.7673Z" fill="white"/>
<path d="M129.279 20.817L129.197 19.1568H126.612L125.977 20.817H122.428L126.982 9.97422H132.068L132.868 20.817H129.279ZM129.197 16.2257V13.1102H128.91L127.699 16.2257H129.197ZM121.772 20.735L113.362 19.8331H122.162L121.772 20.735ZM122.613 18.7468L114.203 17.845H123.003L122.613 18.7468ZM123.454 16.7791L115.044 15.8773H123.823L123.454 16.7791ZM124.274 14.8114L115.885 13.9096H124.664L124.274 14.8114ZM125.115 12.8438L116.726 11.9419H125.484L125.115 12.8438ZM125.936 10.8556L117.567 9.97422H126.305L125.936 10.8556Z" fill="white"/>
<path d="M66.9166 42.5948H64.2091L63.9015 38.188H63.7989L62.8144 42.5948H59.307L61.7889 31.752H66.2397L66.5474 36.8352H66.6294L68.701 31.752H73.1519L71.8392 42.5948H68.3113L68.8651 38.188H68.7625L66.9166 42.5948ZM58.6302 42.5333L49.9336 41.6109H58.8353L58.6302 42.5333ZM59.0814 40.5451L50.4053 39.6227H59.307L59.0814 40.5451ZM59.5532 38.5774L50.8771 37.655H59.7583L59.5532 38.5774ZM59.9634 36.6097L51.3488 35.6874H60.189L59.9634 36.6097ZM60.4351 34.642L51.8206 33.7197H60.6403L60.4351 34.642ZM60.8864 32.6743L52.2923 31.752H61.112L60.8864 32.6743Z" fill="white"/>
<path d="M83.6404 31.547C85.1172 31.547 86.1701 31.834 86.7991 32.4079C87.4281 32.9681 87.7426 33.8495 87.7426 35.052C87.7426 35.6395 87.6674 36.3501 87.517 37.1836C87.1751 39.1513 86.5735 40.5861 85.712 41.4879C84.8506 42.3898 83.4969 42.8407 81.6509 42.8407C80.2015 42.8407 79.1691 42.5606 78.5538 42.0004C77.9384 41.4264 77.6308 40.5451 77.6308 39.3563C77.6308 38.7414 77.706 38.0172 77.8564 37.1836C78.1982 35.2159 78.793 33.788 79.6408 32.8998C80.4886 31.998 81.8218 31.547 83.6404 31.547ZM82.2457 39.7252C82.6422 39.7252 82.9362 39.6774 83.1277 39.5817C83.3328 39.4861 83.4695 39.2743 83.5379 38.9463L84.3173 34.6625H83.0661C82.6833 34.6625 82.3824 34.7104 82.1637 34.806C81.9585 34.9017 81.8355 35.1066 81.7945 35.4209L81.0356 39.7252H82.2457ZM77.1385 37.655C77.0838 38.0786 77.0496 38.3656 77.0359 38.5159L68.9547 37.655H77.1385ZM77.5282 35.6874L77.3436 36.5482L69.3239 35.6874H77.5282ZM77.0154 39.6227C77.0154 39.8414 77.0428 40.1283 77.0975 40.4836L69.0367 39.6227H77.0154ZM78.2461 33.7197C78.082 34.075 77.9658 34.3482 77.8974 34.5395L70.1443 33.7197H78.2461ZM77.4462 41.6109C77.6103 41.9389 77.788 42.1917 77.9794 42.3693L70.8212 41.6109H77.4462ZM80.0305 31.752C79.7024 31.9433 79.422 32.1688 79.1896 32.4284L72.8928 31.752H80.0305Z" fill="white"/>
<path d="M97.7681 31.752V37.942H97.8501L100.229 31.752H103.942L99.5525 42.5948H94.5684L93.9736 31.752H97.7681ZM85.2565 41.6109H93.83L93.8915 42.5333L85.2565 41.6109ZM85.1334 39.6227H93.7274L93.7685 40.5451L85.1334 39.6227ZM84.6617 31.752H93.2967L93.3582 32.6743L84.6617 31.752ZM84.7847 33.7197H93.4198L93.4608 34.642L84.7847 33.7197ZM84.9078 35.6874H93.5018L93.5634 36.6097L84.9078 35.6874ZM85.0308 37.655H93.6044L93.6659 38.5774L85.0308 37.655Z" fill="white"/>
<path d="M106.99 42.5948L108.877 31.752H112.487L110.579 42.5948H106.99ZM106.313 42.5333L97.6165 41.6109H106.477L106.313 42.5333ZM107.01 38.5774L98.3139 37.655H107.175L107.01 38.5774ZM107.359 36.6097L98.6625 35.6874H107.523L107.359 36.6097ZM107.708 34.642L99.0112 33.7197H107.872L107.708 34.642ZM108.057 32.6743L99.3599 31.752H108.2L108.057 32.6743ZM106.662 40.5451L97.9652 39.6227H106.826L106.662 40.5451Z" fill="white"/>
<path d="M123.896 38.188H120.84L120.594 39.5817H124.388L123.855 42.5948H116.615L118.502 31.752H125.722L124.758 34.8265H121.414L121.168 36.2203H124.245L123.896 38.188ZM115.938 42.5333L107.241 41.6109H116.102L115.938 42.5333ZM116.635 38.5774L107.939 37.655H116.799L116.635 38.5774ZM116.984 36.6097L108.287 35.6874H117.148L116.984 36.6097ZM117.333 34.642L108.636 33.7197H117.497L117.333 34.642ZM117.681 32.6743L108.985 31.752H117.825L117.681 32.6743ZM116.287 40.5451L107.59 39.6227H116.451L116.287 40.5451Z" fill="white"/>
</svg>
