<svg width="415" height="153" viewBox="0 0 415 153" fill="none" xmlns="http://www.w3.org/2000/svg">
<ellipse cx="76.694" cy="75.989" rx="73.9711" ry="74.1797" fill="#141D19"/>
<path d="M131.03 22.4109C120.297 11.711 106.621 4.42388 91.7315 1.47098C76.8426 -1.48192 61.4095 0.032229 47.384 5.82191C33.3585 11.6116 21.3705 21.417 12.9362 33.9974C4.50183 46.5781 0 61.3691 0 76.5C0 91.6309 4.50183 106.422 12.9362 119.003C21.3705 131.583 33.3585 141.388 47.384 147.178C61.4095 152.968 76.8426 154.482 91.7315 151.529C106.621 148.576 120.297 141.289 131.03 130.589C145.421 116.243 153.506 96.7867 153.506 76.5C153.506 56.2133 145.421 36.7572 131.03 22.4109ZM20.0174 50.6116C23.885 42.0616 29.6157 34.478 36.7932 28.4126C43.9704 22.3473 52.4138 17.9524 61.509 15.5478C70.6045 13.1432 80.1232 12.7894 89.373 14.512C98.6229 16.2347 107.371 19.9903 114.982 25.5059C96.1424 23.7325 72.5584 33.3297 53.4401 52.3503C46.2245 59.5304 40.1114 67.7326 35.2984 76.6913C28.7522 68.9287 23.5843 60.1085 20.0174 50.6116ZM62.3363 139.352C47.7686 135.461 35.0698 126.522 26.5206 114.138C17.9714 101.755 14.1319 86.7395 15.6916 71.7881C23.6109 88.9313 43.6017 104.509 69.8372 111.464C79.6314 114.112 89.768 115.284 99.9104 114.941C96.4634 124.445 91.4265 133.298 85.0132 141.125C77.4048 141.892 69.7196 141.268 62.3363 139.282V139.352ZM110.098 66.6419C107.511 56.8359 103.491 47.4628 98.1659 38.8237C108.141 37.0539 118.345 36.9834 128.344 38.615C132.819 44.7905 136.119 51.7328 138.077 59.0962C141.987 73.6181 140.573 89.0537 134.089 102.629C127.604 116.205 116.476 127.031 102.701 133.162C113.586 117.827 117.075 92.6866 110.098 66.6419Z" fill="#F9A826"/>
<path d="M211.808 25C214.88 25 217.099 25.5333 218.464 26.6C219.872 27.6667 220.576 29.3093 220.576 31.528C220.576 34.7707 219.851 37.4373 218.4 39.528C216.992 41.6187 215.264 42.92 213.216 43.432L213.152 43.816C216.992 44.5413 218.912 47.08 218.912 51.432C218.912 55.272 217.867 58.4933 215.776 61.096C213.685 63.6987 210.741 65 206.944 65H185.056L192.096 25H211.808ZM204.768 49.064H199.968L198.816 55.592H203.552C204.619 55.592 205.429 55.1653 205.984 54.312C206.539 53.4587 206.816 52.3707 206.816 51.048C206.816 49.7253 206.133 49.064 204.768 49.064ZM206.56 33.768H202.72L201.632 39.72H205.408C207.371 39.72 208.352 38.3333 208.352 35.56C208.352 34.3653 207.755 33.768 206.56 33.768ZM183.136 64.808L156 61.928H183.648L183.136 64.808ZM185.312 52.456L158.176 49.576H185.824L185.312 52.456ZM186.4 46.312L159.264 43.432H186.912L186.4 46.312ZM187.488 40.168L160.352 37.288H188L187.488 40.168ZM188.576 34.024L161.44 31.144H189.024L188.576 34.024ZM184.224 58.6L157.088 55.72H184.736L184.224 58.6ZM189.6 27.88L162.528 25H190.112L189.6 27.88Z" fill="black"/>
<path d="M252.858 30.504C257.466 30.504 260.752 31.4 262.714 33.192C264.677 34.9413 265.658 37.6933 265.658 41.448C265.658 43.2827 265.424 45.5013 264.954 48.104C263.888 54.248 262.01 58.728 259.322 61.544C256.634 64.36 252.41 65.768 246.65 65.768C242.128 65.768 238.906 64.8933 236.986 63.144C235.066 61.352 234.106 58.6 234.106 54.888C234.106 52.968 234.341 50.7067 234.81 48.104C235.877 41.96 237.733 37.5013 240.378 34.728C243.024 31.912 247.184 30.504 252.858 30.504ZM248.506 56.04C249.744 56.04 250.661 55.8907 251.258 55.592C251.898 55.2933 252.325 54.632 252.538 53.608L254.97 40.232H251.066C249.872 40.232 248.933 40.3813 248.25 40.68C247.61 40.9787 247.226 41.6187 247.098 42.6L244.73 56.04H248.506ZM232.57 49.576C232.4 50.8987 232.293 51.7947 232.25 52.264L207.034 49.576H232.57ZM233.786 43.432L233.21 46.12L208.186 43.432H233.786ZM232.186 55.72C232.186 56.4027 232.272 57.2987 232.442 58.408L207.29 55.72H232.186ZM236.026 37.288C235.514 38.3973 235.152 39.2507 234.938 39.848L210.746 37.288H236.026ZM233.53 61.928C234.042 62.952 234.597 63.7413 235.194 64.296L212.858 61.928H233.53ZM241.594 31.144C240.57 31.7413 239.696 32.4453 238.97 33.256L219.322 31.144H241.594Z" fill="black"/>
<path d="M300.141 30.504C304.749 30.504 308.034 31.4 309.997 33.192C311.96 34.9413 312.941 37.6933 312.941 41.448C312.941 43.2827 312.706 45.5013 312.237 48.104C311.17 54.248 309.293 58.728 306.605 61.544C303.917 64.36 299.693 65.768 293.933 65.768C289.41 65.768 286.189 64.8933 284.269 63.144C282.349 61.352 281.389 58.6 281.389 54.888C281.389 52.968 281.624 50.7067 282.093 48.104C283.16 41.96 285.016 37.5013 287.661 34.728C290.306 31.912 294.466 30.504 300.141 30.504ZM295.789 56.04C297.026 56.04 297.944 55.8907 298.541 55.592C299.181 55.2933 299.608 54.632 299.821 53.608L302.253 40.232H298.349C297.154 40.232 296.216 40.3813 295.533 40.68C294.893 40.9787 294.509 41.6187 294.381 42.6L292.013 56.04H295.789ZM279.853 49.576C279.682 50.8987 279.576 51.7947 279.533 52.264L254.317 49.576H279.853ZM281.069 43.432L280.493 46.12L255.469 43.432H281.069ZM279.469 55.72C279.469 56.4027 279.554 57.2987 279.725 58.408L254.573 55.72H279.469ZM283.309 37.288C282.797 38.3973 282.434 39.2507 282.221 39.848L258.029 37.288H283.309ZM280.813 61.928C281.325 62.952 281.88 63.7413 282.477 64.296L260.141 61.928H280.813ZM288.877 31.144C287.853 31.7413 286.978 32.4453 286.253 33.256L266.605 31.144H288.877Z" fill="black"/>
<path d="M343.967 65L340.959 53.928H340.575L338.655 65H327.903L333.791 31.144H344.607L342.751 41.512H343.071L349.663 31.144H361.375L350.623 47.72L355.679 65H343.967ZM325.791 64.808L298.655 61.928H326.303L325.791 64.808ZM327.967 52.456L300.831 49.576H328.479L327.967 52.456ZM329.055 46.312L301.919 43.432H329.567L329.055 46.312ZM330.143 40.168L303.007 37.288H330.655L330.143 40.168ZM331.231 34.024L304.095 31.144H331.679L331.231 34.024ZM326.879 58.6L299.743 55.72H327.391L326.879 58.6Z" fill="black"/>
<path d="M403.389 65L403.133 59.816H395.069L393.085 65H382.013L396.221 31.144H412.093L414.589 65H403.389ZM403.133 50.664V40.936H402.237L398.461 50.664H403.133ZM379.965 64.744L353.725 61.928H381.181L379.965 64.744ZM382.589 58.536L356.349 55.72H383.805L382.589 58.536ZM385.213 52.392L358.973 49.576H386.365L385.213 52.392ZM387.773 46.248L361.597 43.432H388.989L387.773 46.248ZM390.397 40.104L364.221 37.288H391.549L390.397 40.104ZM392.957 33.896L366.845 31.144H394.109L392.957 33.896Z" fill="black"/>
<path d="M208.8 133H200.352L199.392 119.24H199.072L196 133H185.056L192.8 99.144H206.688L207.648 115.016H207.904L214.368 99.144H228.256L224.16 133H213.152L214.88 119.24H214.56L208.8 133ZM182.944 132.808L155.808 129.928H183.584L182.944 132.808ZM184.352 126.6L157.28 123.72H185.056L184.352 126.6ZM185.824 120.456L158.752 117.576H186.464L185.824 120.456ZM187.104 114.312L160.224 111.432H187.808L187.104 114.312ZM188.576 108.168L161.696 105.288H189.216L188.576 108.168ZM189.984 102.024L163.168 99.144H190.688L189.984 102.024Z" fill="black"/>
<path d="M260.983 98.504C265.591 98.504 268.877 99.4 270.839 101.192C272.802 102.941 273.783 105.693 273.783 109.448C273.783 111.283 273.549 113.501 273.079 116.104C272.013 122.248 270.135 126.728 267.447 129.544C264.759 132.36 260.535 133.768 254.775 133.768C250.253 133.768 247.031 132.893 245.111 131.144C243.191 129.352 242.231 126.6 242.231 122.888C242.231 120.968 242.466 118.707 242.935 116.104C244.002 109.96 245.858 105.501 248.503 102.728C251.149 99.912 255.309 98.504 260.983 98.504ZM256.631 124.04C257.869 124.04 258.786 123.891 259.383 123.592C260.023 123.293 260.45 122.632 260.663 121.608L263.095 108.232H259.191C257.997 108.232 257.058 108.381 256.375 108.68C255.735 108.979 255.351 109.619 255.223 110.6L252.855 124.04H256.631ZM240.695 117.576C240.525 118.899 240.418 119.795 240.375 120.264L215.159 117.576H240.695ZM241.911 111.432L241.335 114.12L216.311 111.432H241.911ZM240.311 123.72C240.311 124.403 240.397 125.299 240.567 126.408L215.415 123.72H240.311ZM244.151 105.288C243.639 106.397 243.277 107.251 243.063 107.848L218.871 105.288H244.151ZM241.655 129.928C242.167 130.952 242.722 131.741 243.319 132.296L220.983 129.928H241.655ZM249.719 99.144C248.695 99.7413 247.821 100.445 247.095 101.256L227.447 99.144H249.719Z" fill="black"/>
<path d="M305.066 99.144V118.472H305.322L312.746 99.144H324.33L310.634 133H295.082L293.226 99.144H305.066ZM266.026 129.928H292.778L292.97 132.808L266.026 129.928ZM265.642 123.72H292.458L292.586 126.6L265.642 123.72ZM264.17 99.144H291.114L291.306 102.024L264.17 99.144ZM264.554 105.288H291.498L291.626 108.168L264.554 105.288ZM264.938 111.432H291.754L291.946 114.312L264.938 111.432ZM265.322 117.576H292.074L292.266 120.456L265.322 117.576Z" fill="black"/>
<path d="M333.841 133L339.729 99.144H350.993L345.041 133H333.841ZM331.729 132.808L304.593 129.928H332.241L331.729 132.808ZM333.905 120.456L306.769 117.576H334.417L333.905 120.456ZM334.993 114.312L307.857 111.432H335.505L334.993 114.312ZM336.081 108.168L308.945 105.288H336.593L336.081 108.168ZM337.169 102.024L310.033 99.144H337.617L337.169 102.024ZM332.817 126.6L305.681 123.72H333.329L332.817 126.6Z" fill="black"/>
<path d="M386.593 119.24H377.057L376.289 123.592H388.129L386.465 133H363.873L369.761 99.144H392.289L389.281 108.744H378.849L378.081 113.096H387.681L386.593 119.24ZM361.761 132.808L334.625 129.928H362.273L361.761 132.808ZM363.937 120.456L336.801 117.576H364.449L363.937 120.456ZM365.025 114.312L337.889 111.432H365.537L365.025 114.312ZM366.113 108.168L338.977 105.288H366.625L366.113 108.168ZM367.201 102.024L340.065 99.144H367.649L367.201 102.024ZM362.849 126.6L335.713 123.72H363.361L362.849 126.6Z" fill="black"/>
</svg>
